<svg id="Layer_1" data-name="Layer 1" xmlns="http://www.w3.org/2000/svg" viewBox="0 0 76.68 76.68"><defs><style>.cls-1{fill:#fff;stroke:#000;stroke-miterlimit:10;stroke-width:7px;}</style></defs><rect class="cls-1" x="9.32" y="9.65" width="58.04" height="58.04" rx="10.91"/><path d="M22.67,21v5a3.34,3.34,0,0,0,1.68,2.9L36.66,36A3.36,3.36,0,0,0,40,36l12.32-7.12A3.33,3.33,0,0,0,54,26V20.57a2,2,0,0,0-2-2H25.13A2.47,2.47,0,0,0,22.67,21Z"/><path d="M54,56.22v-5a3.35,3.35,0,0,0-1.67-2.9L40,41.24a3.36,3.36,0,0,0-3.36,0L24.35,48.35a3.36,3.36,0,0,0-1.68,2.9v5.42a2,2,0,0,0,2,2H51.55A2.46,2.46,0,0,0,54,56.22Z"/></svg>