<svg id="Layer_1" data-name="Layer 1" xmlns="http://www.w3.org/2000/svg" viewBox="0 0 76.68 76.68"><defs><style>.cls-1{fill:#fff;stroke:#000;stroke-miterlimit:10;stroke-width:7px;}</style></defs><path class="cls-1" d="M57.57,69.15H14.78a7,7,0,0,1-6.67-9L22.34,12.5a7,7,0,0,1,6.67-5H42.52a7,7,0,0,1,6.65,4.87l15,47.7A7,7,0,0,1,57.57,69.15Z"/><path class="cls-1" d="M64.12,69.15H35a4.75,4.75,0,0,1-4.55-6.1l9.7-32.49a4.72,4.72,0,0,1,4.54-3.39h9.21a4.76,4.76,0,0,1,4.53,3.31L68.64,63A4.74,4.74,0,0,1,64.12,69.15Z"/></svg>